<svg xmlns="http://www.w3.org/2000/svg" viewBox="0 0 64 64" role="img" aria-labelledby="title desc">
  <title id="title">OpenClockwork split time favicon</title>
  <desc id="desc">A simplified chess clock with two contrasting timer halves.</desc>
  <rect width="64" height="64" rx="16" fill="#0f172a"/>
  <path d="M14 21h36a5 5 0 0 1 5 5v22a5 5 0 0 1-5 5H14a5 5 0 0 1-5-5V26a5 5 0 0 1 5-5Z" fill="#e5e7eb"/>
  <path d="M14 21h18v32H14a5 5 0 0 1-5-5V26a5 5 0 0 1 5-5Z" fill="#14b8a6"/>
  <path d="M18 15h9v6h-9zM37 15h9v6h-9z" fill="#f59e0b"/>
  <path d="M32 24v26" stroke="#0f172a" stroke-width="3" stroke-linecap="round"/>
  <circle cx="22" cy="37" r="8.5" fill="#0f172a"/>
  <circle cx="42" cy="37" r="8.5" fill="#0f172a"/>
  <path d="M22 37v-5M22 37h4M42 37v-6M42 37l-4 3" fill="none" stroke="#f8fafc" stroke-width="2.4" stroke-linecap="round"/>
  <path d="M17 49h30" stroke="#0f172a" stroke-width="3" stroke-linecap="round"/>
</svg>
