<svg xmlns="http://www.w3.org/2000/svg" viewBox="0 0 64 64" role="img" aria-labelledby="title desc">
  <title id="title">OpenClockwork classic chess clock favicon</title>
  <desc id="desc">A compact chess clock with two analog faces and green timing accents.</desc>
  <rect width="64" height="64" rx="14" fill="#111827"/>
  <path d="M15 19h34a6 6 0 0 1 6 6v22a6 6 0 0 1-6 6H15a6 6 0 0 1-6-6V25a6 6 0 0 1 6-6Z" fill="#f8fafc"/>
  <path d="M18 14h8v5h-8zM38 14h8v5h-8z" fill="#10b981"/>
  <path d="M28 14h8v4h-8z" fill="#374151"/>
  <circle cx="23" cy="36" r="11" fill="#111827"/>
  <circle cx="41" cy="36" r="11" fill="#111827"/>
  <circle cx="23" cy="36" r="7.5" fill="#f8fafc"/>
  <circle cx="41" cy="36" r="7.5" fill="#f8fafc"/>
  <path d="M23 36v-5M23 36l4 3M41 36v-6M41 36l-4 2" fill="none" stroke="#111827" stroke-width="2.4" stroke-linecap="round"/>
  <circle cx="23" cy="36" r="1.6" fill="#10b981"/>
  <circle cx="41" cy="36" r="1.6" fill="#10b981"/>
  <path d="M15 49h34" stroke="#10b981" stroke-width="3" stroke-linecap="round"/>
</svg>
