<svg xmlns="http://www.w3.org/2000/svg" viewBox="0 0 64 64" role="img" aria-labelledby="title desc">
  <title id="title">OpenClockwork digital board favicon</title>
  <desc id="desc">A compact digital chess clock with a small checkerboard base.</desc>
  <rect width="64" height="64" rx="14" fill="#16213e"/>
  <path d="M13 18h38a6 6 0 0 1 6 6v23a6 6 0 0 1-6 6H13a6 6 0 0 1-6-6V24a6 6 0 0 1 6-6Z" fill="#f8fafc"/>
  <path d="M17 13h10v5H17zM37 13h10v5H37z" fill="#22c55e"/>
  <rect x="14" y="26" width="16" height="13" rx="3" fill="#16213e"/>
  <rect x="34" y="26" width="16" height="13" rx="3" fill="#16213e"/>
  <path d="M18 33h8M38 33h8" stroke="#a7f3d0" stroke-width="3" stroke-linecap="round"/>
  <path d="M14 44h9v5h-9zM23 44h9v5h-9zM32 44h9v5h-9zM41 44h9v5h-9z" fill="#16213e"/>
  <path d="M23 44h9v5h-9zM41 44h9v5h-9z" fill="#22c55e"/>
  <path d="M32 22v20" stroke="#cbd5e1" stroke-width="2.5" stroke-linecap="round"/>
</svg>
